<svg xmlns="http://www.w3.org/2000/svg" viewBox="0 0 265.02 358.9"><defs><style>.cls-1{fill:#fff;}</style></defs><g id="Layer_2" data-name="Layer 2"><path class="cls-1" d="M302.94,304.34c-3-3-5.12-5.87-7.93-8.54-10.5-10-22.83-13-36.53-8.48-24.73,8.11-32.34,39.85-14.1,58.42,12.19,12.41,24.59,24.62,36.89,36.93,7.24,7.24,14.26,14.5,21.67,21.93,7.41-7.43,14.44-14.69,21.68-21.93,12.3-12.31,24.69-24.52,36.88-36.93,18.24-18.57,10.64-50.31-14.1-58.42-13.69-4.49-26-1.48-36.53,8.48C308.07,298.47,305.91,301.32,302.94,304.34Zm0-47.41c1.89-2.08,3.77-4.44,5.92-6.51,18.74-18.07,41.12-25.32,66.59-20.2,28.69,5.77,48.17,23.3,56.5,51.22s1.67,53.34-19.11,74.27q-43.23,43.53-86.71,86.82v50.53c1.46,0,27.61,0,39.1,0,6.95,0,9.12,2,9.17,8.77q.12,14.25,0,28.5c-.06,6.43-2.3,8.56-8.84,8.58-13,0-26,0-39.69,0,0,4.82,0,31.33,0,40,0,6.21-2.2,8.45-8.39,8.52q-14.49.15-29,0c-6.24-.05-8.41-2.25-8.44-8.47,0-13.13,0-26.27,0-40.05-13.5,0-26.32,0-39.13,0-7.4,0-9.39-2-9.42-9.52q0-13.5,0-27c0-7.38,2.05-9.33,9.6-9.34h38.67V442.51h0q-43.37-43.38-86.69-86.8c-20.79-20.93-27.47-46.23-19.11-74.27s27.81-45.45,56.5-51.22c25.47-5.12,47.84,2.13,66.59,20.2C299.18,252.49,301.06,254.85,302.94,256.93Z" transform="translate(-170.43 -228.61)"/></g></svg>